<?xml version="1.0" standalone="no"?>
<!DOCTYPE svg PUBLIC "-//W3C//DTD SVG 20010904//EN"
 "http://www.w3.org/TR/2001/REC-SVG-20010904/DTD/svg10.dtd">
<svg version="1.0" xmlns="http://www.w3.org/2000/svg"
 width="297.000000pt" height="297.000000pt" viewBox="0 0 297.000000 297.000000"
 preserveAspectRatio="xMidYMid meet">

<g transform="translate(0.000000,297.000000) scale(0.100000,-0.100000)"
fill="#000000" stroke="none">
<path d="M525 2964 c-209 -45 -369 -162 -453 -330 -71 -144 -67 -76 -67 -1149
0 -1073 -4 -1005 67 -1149 73 -146 226 -270 393 -317 74 -21 1966 -21 2040 0
167 47 320 171 393 317 71 144 67 76 67 1149 0 1073 4 1005 -67 1149 -52 104
-156 210 -259 261 -148 75 -58 69 -1129 71 -531 1 -974 0 -985 -2z m1908 -378
c55 -20 103 -61 134 -114 l28 -47 0 -940 0 -940 -28 -47 c-31 -53 -79 -94
-134 -114 -56 -19 -1840 -19 -1896 0 -55 20 -103 61 -134 114 l-28 47 0 940 0
940 28 47 c31 53 79 94 134 114 56 19 1840 19 1896 0z"/>
</g>
</svg>
