<?xml version="1.0" standalone="no"?>
<!DOCTYPE svg PUBLIC "-//W3C//DTD SVG 20010904//EN"
 "http://www.w3.org/TR/2001/REC-SVG-20010904/DTD/svg10.dtd">
<svg version="1.0" xmlns="http://www.w3.org/2000/svg"
 width="297.000000pt" height="297.000000pt" viewBox="0 0 297.000000 297.000000"
 preserveAspectRatio="xMidYMid meet">

<g transform="translate(0.000000,297.000000) scale(0.100000,-0.100000)"
fill="#000000" stroke="none">
<path d="M1320 2959 c-329 -37 -635 -183 -874 -417 -200 -196 -335 -435 -401
-707 -122 -498 23 -1022 383 -1389 196 -200 435 -335 707 -401 615 -150 1254
107 1601 643 279 431 307 999 73 1464 -278 553 -874 876 -1489 807z m395 -384
c423 -88 771 -437 862 -865 24 -116 24 -334 0 -450 -92 -430 -437 -775 -867
-867 -116 -24 -334 -24 -450 0 -430 92 -775 437 -867 867 -24 116 -24 334 0
450 96 450 463 801 915 875 108 18 297 13 407 -10z"/>
</g>
</svg>
